<!-- icon666.com - MILLIONS vector ICONS FREE --><svg version="1.1" id="Layer_1" xmlns="http://www.w3.org/2000/svg" xmlns:xlink="http://www.w3.org/1999/xlink" x="0px" y="0px" viewBox="0 0 512 512" style="enable-background:new 0 0 512 512;" xml:space="preserve"><rect x="12" y="117.71" style="fill:#FFCE54;" width="486" height="277"></rect><rect x="132.66" y="159.99" style="fill:#AAB2BC;" width="247.34" height="196.05"></rect><g><path style="fill:#F5F7FA;" d="M85,270.602c0,8.078-6.938,14.609-15.5,14.609S54,278.68,54,270.602 c0-8.062,6.938-14.609,15.5-14.609S85,262.539,85,270.602z"></path><path style="fill:#F5F7FA;" d="M85,336.008c0,8.078-6.938,14.609-15.5,14.609S54,344.086,54,336.008 c0-8.062,6.938-14.609,15.5-14.609S85,327.945,85,336.008z"></path><path style="fill:#F5F7FA;" d="M458.172,272.008c0,8.078-6.938,14.609-15.5,14.609s-15.5-6.531-15.5-14.609 c0-8.062,6.938-14.609,15.5-14.609S458.172,263.945,458.172,272.008z"></path><path style="fill:#F5F7FA;" d="M458.172,336.008c0,8.078-6.938,14.609-15.5,14.609s-15.5-6.531-15.5-14.609 c0-8.062,6.938-14.609,15.5-14.609S458.172,327.945,458.172,336.008z"></path></g><path d="M0,106.665v298.671h512V106.665H0z M490.672,383.992H21.344v-256h469.328V383.992z"></path><path d="M394.672,149.335H117.344v213.328h277.328V149.335z M373.344,341.336H138.672V170.664h234.672V341.336z"></path><path d="M442.672,362.664c14.735,0,26.672-11.938,26.672-26.672c0-14.719-11.937-26.656-26.672-26.656 c-14.719,0-26.672,11.938-26.672,26.656C416,350.727,427.953,362.664,442.672,362.664z M442.672,330.664 c2.938,0,5.328,2.391,5.328,5.328s-2.391,5.344-5.328,5.344s-5.328-2.406-5.328-5.344S439.734,330.664,442.672,330.664z"></path><path d="M442.672,298.664c14.735,0,26.672-11.938,26.672-26.672c0-14.719-11.937-26.656-26.672-26.656 c-14.719,0-26.672,11.938-26.672,26.656C416,286.727,427.953,298.664,442.672,298.664z M442.672,266.664 c2.938,0,5.328,2.391,5.328,5.328s-2.391,5.344-5.328,5.344s-5.328-2.406-5.328-5.344S439.734,266.664,442.672,266.664z"></path><path d="M69.344,362.664c14.719,0,26.656-11.938,26.656-26.672c0-14.719-11.938-26.656-26.656-26.656 c-14.734,0-26.672,11.938-26.672,26.656C42.672,350.727,54.609,362.664,69.344,362.664z M69.344,330.664 c2.938,0,5.328,2.391,5.328,5.328s-2.391,5.344-5.328,5.344c-2.938,0-5.344-2.406-5.344-5.344S66.406,330.664,69.344,330.664z"></path><path d="M69.344,298.664c14.719,0,26.656-11.938,26.656-26.672c0-14.719-11.938-26.656-26.656-26.656 c-14.734,0-26.672,11.938-26.672,26.656C42.672,286.727,54.609,298.664,69.344,298.664z M69.344,266.664 c2.938,0,5.328,2.391,5.328,5.328s-2.391,5.344-5.328,5.344c-2.938,0-5.344-2.406-5.344-5.344S66.406,266.664,69.344,266.664z"></path><path d="M437.344,170.664h21.328c5.891,0,10.672-4.782,10.672-10.672s-4.781-10.656-10.672-10.656h-21.328 c-5.891,0-10.672,4.765-10.672,10.656S431.453,170.664,437.344,170.664z"></path><path d="M437.344,202.663h21.328c5.891,0,10.672-4.781,10.672-10.672s-4.781-10.656-10.672-10.656h-21.328 c-5.891,0-10.672,4.765-10.672,10.656S431.453,202.663,437.344,202.663z"></path><path d="M160,330.664c5.906,0,10.672-4.781,10.672-10.672V202.663H352l0,0c5.891,0,10.672-4.765,10.672-10.672 c0-5.875-4.781-10.656-10.672-10.656l0,0H160c-5.875,0-10.656,4.765-10.656,10.656v128C149.344,325.883,154.125,330.664,160,330.664 z"></path></svg>