<svg width="16" height="16" viewBox="0 0 16 16" fill="none" xmlns="http://www.w3.org/2000/svg">
<g clip-path="url(#clip0_6_1105)">
<path d="M10.8333 7.99988C10.8333 7.72374 10.6095 7.49988 10.3333 7.49988C10.0572 7.49988 9.83333 7.72374 9.83333 7.99988H10.8333ZM6.60738 11.8301C6.37641 11.6788 6.06648 11.7433 5.91513 11.9743C5.76377 12.2053 5.82831 12.5152 6.05929 12.6665L6.60738 11.8301ZM6.00811 4.56412L6.15407 4.46788L5.60361 3.63302L5.45765 3.72926L6.00811 4.56412ZM1.52227 8.65508C1.50817 8.42374 1.5 8.20201 1.5 7.99988H0.5C0.5 8.22761 0.509155 8.47041 0.524119 8.71588L1.52227 8.65508ZM1.5 7.99988C1.5 7.79774 1.50817 7.57601 1.52227 7.34468L0.524119 7.28388C0.509155 7.52934 0.5 7.77214 0.5 7.99988H1.5ZM9.83333 7.99988C9.83333 8.34107 9.8104 8.96721 9.77567 9.71361L10.7746 9.76001C10.8091 9.01668 10.8333 8.36788 10.8333 7.99988H9.83333ZM4.00005 5.16654C4.32514 5.16654 4.54455 5.16814 4.76072 5.13164L4.59421 4.1456C4.47971 4.16493 4.35773 4.16654 4.00005 4.16654V5.16654ZM5.45765 3.72926C5.15904 3.92614 5.05632 3.99195 4.95009 4.03883L5.35385 4.9537C5.55442 4.86518 5.73671 4.74306 6.00811 4.56412L5.45765 3.72926ZM4.76072 5.13164C4.96504 5.09713 5.16427 5.03736 5.35385 4.9537L4.95009 4.03883C4.83635 4.08903 4.7168 4.12489 4.59421 4.1456L4.76072 5.13164ZM4.00005 11.8332C4.35773 11.8332 4.47971 11.8348 4.59421 11.8541L4.76072 10.8681C4.54455 10.8316 4.32514 10.8332 4.00005 10.8332V11.8332ZM4.00005 10.8332C3.03761 10.8332 2.71274 10.8223 2.43653 10.6945L2.01664 11.6021C2.53954 11.8441 3.13062 11.8332 4.00005 11.8332V10.8332ZM0.524119 8.71588C0.570989 9.48488 0.593394 10.014 0.86552 10.519L1.74587 10.0447C1.60035 9.77461 1.57363 9.49781 1.52227 8.65508L0.524119 8.71588ZM2.43653 10.6945C2.16963 10.5711 1.88536 10.3036 1.74587 10.0447L0.86552 10.519C1.10761 10.9683 1.55344 11.3878 2.01664 11.6021L2.43653 10.6945ZM9.77567 9.71361C9.72827 10.7341 9.694 11.4487 9.601 11.9653C9.5084 12.4795 9.37673 12.6759 9.23233 12.7774L9.80727 13.5956C10.278 13.2648 10.4773 12.7421 10.5852 12.1425C10.6927 11.5452 10.7285 10.7511 10.7746 9.76001L9.77567 9.71361ZM9.29487 13.8563C9.47613 13.7945 9.6506 13.7057 9.80727 13.5956L9.23233 12.7774C9.15313 12.8331 9.06347 12.8787 8.97187 12.9099L9.29487 13.8563ZM6.15407 4.46788C7.01393 3.90094 7.61733 3.50434 8.09347 3.27304C8.56833 3.04236 8.8058 3.03311 8.97187 3.0898L9.29487 2.14338C8.7494 1.95725 8.2072 2.10604 7.65653 2.37355C7.10713 2.64043 6.43905 3.08218 5.60361 3.63302L6.15407 4.46788ZM8.97187 3.0898C9.06347 3.12106 9.15313 3.16666 9.23233 3.22232L9.80727 2.40415C9.6506 2.29403 9.47613 2.20524 9.29487 2.14338L8.97187 3.0898ZM4.00005 4.16654C3.13062 4.16654 2.53954 4.15568 2.01664 4.39761L2.43653 5.30518C2.71274 5.17739 3.03761 5.16654 4.00005 5.16654V4.16654ZM1.52227 7.34468C1.57363 6.50191 1.60035 6.22511 1.74587 5.95504L0.86552 5.4807C0.593394 5.98576 0.570989 6.51485 0.524119 7.28388L1.52227 7.34468ZM2.01664 4.39761C1.55344 4.61191 1.10761 5.0314 0.86552 5.4807L1.74587 5.95504C1.88536 5.69614 2.16963 5.42866 2.43653 5.30518L2.01664 4.39761ZM6.05929 12.6665C6.7518 13.1204 7.325 13.483 7.8136 13.6992C8.30847 13.9181 8.8002 14.0251 9.29487 13.8563L8.97187 12.9099C8.8216 12.9612 8.61247 12.9591 8.21813 12.7847C7.8176 12.6075 7.3132 12.2927 6.60738 11.8301L6.05929 12.6665ZM10.7487 5.6932C10.7083 4.8751 10.6642 4.20458 10.5513 3.68636C10.4368 3.16074 10.2335 2.70372 9.80727 2.40415L9.23233 3.22232C9.36287 3.31408 9.4836 3.48339 9.57427 3.89926C9.66647 4.32254 9.70873 4.90866 9.74993 5.74254L10.7487 5.6932Z" fill="#FFFFFF"/>
<path d="M13.3333 12C13.3333 12 14.3333 10.8 14.3333 7.99999C14.3333 6.37771 13.9976 5.29254 13.7152 4.66666" stroke="#FFFFFF" stroke-linecap="round"/>
<path d="M12 9.99999C12 9.99999 12.3333 9.39999 12.3333 7.99999C12.3333 7.42539 12.2772 6.98559 12.211 6.66666" stroke="#FFFFFF" stroke-linecap="round"/>
<path d="M14.6666 1.33334L1.33331 14.6667" stroke="#FFFFFF" stroke-linecap="round"/>
</g>
</svg>
